<?xml version="1.0" encoding="UTF-8"?>
<svg width="31px" height="31px" viewBox="0 0 31 31" version="1.1" xmlns="http://www.w3.org/2000/svg" xmlns:xlink="http://www.w3.org/1999/xlink">
    <!-- Generator: Sketch 50.2 (55047) - http://www.bohemiancoding.com/sketch -->
    <title>Icon/Dashboard</title>
    <desc>Created with Sketch.</desc>
    <defs>
        <linearGradient x1="0%" y1="71.8647204%" x2="100%" y2="34.7502056%" id="dashboard_linearGradient-1">
            <stop stop-color="#FFFFFF" stop-opacity="0.213569973" offset="0%"></stop>
            <stop stop-color="#FFFFFF" stop-opacity="0.599439538" offset="100%"></stop>
        </linearGradient>
        <path d="M7.5,6 L14.5,6 C14.7761424,6 15,6.22385763 15,6.5 L15,15.5 C15,15.7761424 14.7761424,16 14.5,16 L7.5,16 C7.22385763,16 7,15.7761424 7,15.5 L7,6.5 C7,6.22385763 7.22385763,6 7.5,6 Z M7.5,18 L14.5,18 C14.7761424,18 15,18.2238576 15,18.5 L15,24.5 C15,24.7761424 14.7761424,25 14.5,25 L7.5,25 C7.22385763,25 7,24.7761424 7,24.5 L7,18.5 C7,18.2238576 7.22385763,18 7.5,18 Z M24.5,25 L17.5,25 C17.2238576,25 17,24.7761424 17,24.5 L17,15.5 C17,15.2238576 17.2238576,15 17.5,15 L24.5,15 C24.7761424,15 25,15.2238576 25,15.5 L25,24.5 C25,24.7761424 24.7761424,25 24.5,25 Z M24.5,13 L17.5,13 C17.2238576,13 17,12.7761424 17,12.5 L17,6.5 C17,6.22385763 17.2238576,6 17.5,6 L24.5,6 C24.7761424,6 25,6.22385763 25,6.5 L25,12.5 C25,12.7761424 24.7761424,13 24.5,13 Z" id="dashboard_path-2"></path>
        <filter x="-58.3%" y="-55.3%" width="216.7%" height="210.5%" filterUnits="objectBoundingBox" id="dashboard_filter-3">
            <feOffset dx="0" dy="0" in="SourceAlpha" result="shadowOffsetOuter1"></feOffset>
            <feGaussianBlur stdDeviation="3.5" in="shadowOffsetOuter1" result="shadowBlurOuter1"></feGaussianBlur>
            <feComposite in="shadowBlurOuter1" in2="SourceAlpha" operator="out" result="shadowBlurOuter1"></feComposite>
            <feColorMatrix values="0 0 0 0 0   0 0 0 0 0   0 0 0 0 0  0 0 0 0.155174366 0" type="matrix" in="shadowBlurOuter1"></feColorMatrix>
        </filter>
    </defs>
    <g id="dashboard_Icon/Dashboard" stroke="none" stroke-width="1" fill="none" fill-rule="evenodd">
        <rect id="dashboard_Rectangle" fill="#FFFFFF" opacity="0" x="0" y="0" width="31" height="31"></rect>
        <g id="dashboard_Combined-Shape">
            <use fill="black" fill-opacity="1" filter="url(#dashboard_filter-3)" xlink:href="#dashboard_path-2"></use>
            <use fill="url(#dashboard_linearGradient-1)" fill-rule="evenodd" xlink:href="#dashboard_path-2"></use>
        </g>
    </g>
</svg>