<?xml version="1.0" encoding="UTF-8"?>
<svg width="31px" height="31px" viewBox="0 0 31 31" version="1.1" xmlns="http://www.w3.org/2000/svg" xmlns:xlink="http://www.w3.org/1999/xlink">
    <!-- Generator: Sketch 50.2 (55047) - http://www.bohemiancoding.com/sketch -->
    <title>Icon/Settings</title>
    <desc>Created with Sketch.</desc>
    <defs>
        <linearGradient x1="0%" y1="71.8647204%" x2="100%" y2="34.7502056%" id="settings_linearGradient-1">
            <stop stop-color="#FFFFFF" stop-opacity="0.213569973" offset="0%"></stop>
            <stop stop-color="#FFFFFF" stop-opacity="0.599439538" offset="100%"></stop>
        </linearGradient>
        <path d="M24.4309484,13.8471761 C24.7603993,13.8770764 25,14.1461794 25,14.4451827 L25,17.5548173 C25,17.8837209 24.7603993,18.1229236 24.4309484,18.1528239 L22.6039933,18.2724252 C22.5141431,18.5415282 22.3943428,18.8106312 22.2745424,19.0797342 L23.4725458,20.4551495 C23.6821963,20.6943522 23.6522463,21.0531561 23.4425957,21.2624585 L21.2562396,23.4451827 C21.046589,23.6843854 20.687188,23.6843854 20.4475874,23.4750831 L19.0698835,22.2790698 C18.8003328,22.3986711 18.530782,22.5182724 18.2612313,22.6079734 L18.1414309,24.4318937 C18.1114809,24.7607973 17.8718802,25 17.5424293,25 L14.4575707,25 C14.1281198,25 13.8885191,24.7607973 13.8585691,24.4318937 L13.7387687,22.6079734 C13.469218,22.5182724 13.1996672,22.3986711 12.9301165,22.2790698 L11.5524126,23.4750831 C11.312812,23.6843854 10.953411,23.654485 10.7437604,23.4451827 L8.55740433,21.2624585 C8.31780366,21.0531561 8.31780366,20.6943522 8.52745424,20.4551495 L9.72545757,19.0797342 C9.60565724,18.8106312 9.48585691,18.5415282 9.39600666,18.2724252 L7.56905158,18.1528239 C7.23960067,18.1229236 7,17.8837209 7,17.5548173 L7,14.4750831 C7,14.1461794 7.23960067,13.9069767 7.56905158,13.8770764 L9.39600666,13.7574751 C9.48585691,13.4883721 9.60565724,13.2192691 9.72545757,12.9501661 L8.52745424,11.5747508 C8.31780366,11.3355482 8.34775374,10.9767442 8.55740433,10.7674419 L10.7437604,8.58471761 C10.953411,8.34551495 11.312812,8.34551495 11.5524126,8.55481728 L12.9301165,9.75083056 C13.1996672,9.63122924 13.469218,9.51162791 13.7387687,9.42192691 L13.8585691,7.56810631 C13.8885191,7.23920266 14.1281198,7 14.4575707,7 L17.5424293,7 C17.8718802,7 18.1114809,7.23920266 18.1414309,7.56810631 L18.2612313,9.39202658 C18.530782,9.48172757 18.8003328,9.6013289 19.0698835,9.72093023 L20.4475874,8.52491694 C20.687188,8.31561462 21.046589,8.34551495 21.2562396,8.55481728 L23.4425957,10.7375415 C23.6821963,10.9468439 23.6821963,11.3056478 23.4725458,11.5448505 L22.2745424,12.9202658 C22.3943428,13.1893688 22.5141431,13.4584718 22.6039933,13.7275748 L24.4309484,13.8471761 Z M16.014975,12.8006645 C14.2479201,12.8006645 12.8103161,14.2358804 12.8103161,16 C12.8103161,17.7641196 14.2479201,19.1993355 16.014975,19.1993355 C17.78203,19.1993355 19.2196339,17.7641196 19.2196339,16 C19.2196339,14.2358804 17.78203,12.8006645 16.014975,12.8006645 Z" id="settings_path-2"></path>
        <filter x="-58.3%" y="-58.3%" width="216.7%" height="216.7%" filterUnits="objectBoundingBox" id="settings_filter-3">
            <feOffset dx="0" dy="0" in="SourceAlpha" result="shadowOffsetOuter1"></feOffset>
            <feGaussianBlur stdDeviation="3.5" in="shadowOffsetOuter1" result="shadowBlurOuter1"></feGaussianBlur>
            <feComposite in="shadowBlurOuter1" in2="SourceAlpha" operator="out" result="shadowBlurOuter1"></feComposite>
            <feColorMatrix values="0 0 0 0 0   0 0 0 0 0   0 0 0 0 0  0 0 0 0.155174366 0" type="matrix" in="shadowBlurOuter1"></feColorMatrix>
        </filter>
    </defs>
    <g id="settings_Icon/Settings" stroke="none" stroke-width="1" fill="none" fill-rule="evenodd">
        <rect id="settings_Rectangle-Copy-6" fill="#FFFFFF" opacity="0" x="0" y="0" width="31" height="31"></rect>
        <g id="settings_Combined-Shape" fill-rule="nonzero">
            <use fill="black" fill-opacity="1" filter="url(#settings_filter-3)" xlink:href="#settings_path-2"></use>
            <use fill="url(#settings_linearGradient-1)" fill-rule="evenodd" xlink:href="#settings_path-2"></use>
        </g>
    </g>
</svg>