<?xml version="1.0" encoding="UTF-8"?>
<svg width="68px" height="45px" viewBox="0 0 68 45" version="1.1" xmlns="http://www.w3.org/2000/svg" xmlns:xlink="http://www.w3.org/1999/xlink">
    <!-- Generator: Sketch 50.2 (55047) - http://www.bohemiancoding.com/sketch -->
    <title>Logo/Full</title>
    <desc>Created with Sketch.</desc>
    <defs></defs>
    <g id="Logo/Full" stroke="none" stroke-width="1" fill="none" fill-rule="evenodd">
        <path d="M27.6136261,18.7399375 L31.035749,16.119415 L37.3044287,24.3790748 L33.8835086,27 L27.6136261,18.7399375 Z M41.3011155,8.25925705 L37.879193,10.8791755 L31.6097114,2.61991841 L35.0314334,0 L41.3011155,8.25925705 Z M29.8996523,3.92957557 L42.4372122,20.4478883 L39.0152897,23.0688135 L26.4777298,6.55029943 L29.8996523,3.92957557 Z" id="Fill-56" fill="#FFFFFF"></path>
        <path d="M31.1534208,40.8033803 C30.7162718,40.3906536 30.1120274,39.6026508 30.1120274,39.6026508 C30.1120274,39.6026508 30.2409165,40.5712793 30.2409165,41.2040858 L30.2409165,44.8837954 L28.5559981,44.8837954 L28.5559981,36.0258917 L28.7364429,36.0258917 L33.1464455,40.1838279 C33.5703986,40.5837629 34.1746431,41.3851739 34.1746431,41.3851739 C34.1746431,41.3851739 34.0587963,40.3906536 34.0587963,39.783893 L34.0587963,36.1032587 L35.7426406,36.1032587 L35.7426406,44.9617789 L35.5634234,44.9617789 L31.1534208,40.8033803 Z M10.2690871,44.8837954 L10.2690871,36.1032587 L12.0687782,36.1032587 L12.0687782,44.8837954 L10.2690871,44.8837954 Z M16.19323,40.4939124 C16.19323,37.8982653 18.018392,36 20.6540211,36 C22.0810077,36 23.1098191,36.3876055 23.8292966,37.2139836 L22.6082256,38.4278131 C22.1710767,37.9762488 21.6696366,37.6271726 20.6540211,37.6271726 C19.072214,37.6271726 18.0440164,38.8542562 18.0440164,40.4939124 C18.0440164,42.1335685 19.0986056,43.3863897 20.9363496,43.3863897 C21.5023876,43.3863897 22.1962407,43.2825145 22.646432,43.0630512 L22.646432,41.6428584 L20.5380208,41.6428584 L20.5380208,40.0548316 L24.2919164,40.0548316 L24.2919164,43.9808209 C23.790323,44.3932394 22.5305853,45 20.9363496,45 C18.0822228,45 16.19323,43.0895594 16.19323,40.4939124 Z M44.4679737,42.1850438 L43.914978,40.855472 C43.671623,40.2742949 43.4135379,39.3831875 43.3885273,39.2931829 C43.3753315,39.3315581 43.1186274,40.2485573 42.873738,40.855472 L42.3208958,42.1850438 L44.4679737,42.1850438 Z M43.3371251,36.0258917 L43.4911783,36.0258917 L47.489196,44.8837954 L45.5988223,44.8837954 L45.1104246,43.69632 L41.7164979,43.69632 L41.2282536,44.8837954 L39.4931606,44.8837954 L43.3371251,36.0258917 Z M51.2384884,36.1032587 L53.039407,36.1032587 L53.039407,43.2957686 L56.9979908,43.2957686 L56.9979908,44.8837954 L51.2384884,44.8837954 L51.2384884,36.1032587 Z M61.1428501,43.1542887 L62.6088103,42.3015566 C62.9944036,42.9348254 63.4953834,43.3990273 64.3819564,43.3990273 C65.1284392,43.3990273 65.6036411,43.02483 65.6036411,42.5082282 C65.6036411,41.8882134 65.1152434,41.6687501 64.2925012,41.3070363 L63.8423099,41.1140812 C62.5442123,40.5586417 61.6824965,39.86126 61.6824965,38.3888213 C61.6824965,37.033512 62.7113079,36 64.3181256,36 C65.4627837,36 66.2855259,36.4002432 66.876728,37.4459304 L65.4753657,38.3504461 C65.1666456,37.7950066 64.8323011,37.5756974 64.3181256,37.5756974 C63.7909077,37.5756974 63.4565632,37.9115194 63.4565632,38.3504461 C63.4565632,38.8924774 63.7909077,39.1119407 64.5624011,39.4479168 L65.0125924,39.6417967 C66.5422301,40.3000325 67.4033321,40.9713684 67.4033321,42.4826447 C67.4033321,44.1090467 66.1310124,45 64.4215437,45 C62.7495143,45 61.6700679,44.2002843 61.1428501,43.1542887 Z M0,43.1542887 L1.46596029,42.3015566 C1.85170701,42.9348254 2.35253331,43.3990273 3.23925976,43.3990273 C3.98558914,43.3990273 4.46094448,43.02483 4.46094448,42.5082282 C4.46094448,41.8882134 3.97254678,41.6687501 3.14965113,41.3070363 L2.69945985,41.1140812 C1.40136229,40.5586417 0.539799907,39.86126 0.539799907,38.3888213 C0.539799907,37.033512 1.56861127,36 3.17542896,36 C4.32008709,36 5.1428293,36.4002432 5.73387798,37.4459304 L4.33251568,38.3504461 C4.02379555,37.7950066 3.68945104,37.5756974 3.17542896,37.5756974 C2.64805764,37.5756974 2.31371313,37.9115194 2.31371313,38.3504461 C2.31371313,38.8924774 2.64805764,39.1119407 3.41955109,39.4479168 L3.86974237,39.6417967 C5.39953346,40.3000325 6.26048209,40.9713684 6.26048209,42.4826447 C6.26048209,44.1090467 4.98816236,45 3.27869369,45 C1.60681769,45 0.527371313,44.2002843 0,43.1542887 Z" id="Fill-61" fill="#FFFFFF"></path>
    </g>
</svg>